<svg viewBox="0 0 128 128" xmlns="http://www.w3.org/2000/svg"><path d="m101.84 41.72v44.28l-37.66 22.32-.34.31v16.57l.34.32 53-30.64v-61.76l-.5-.12-15 8.36.08.36" fill="#2f406a"/><path d="m26.4 86.4 37.78 21.92v17.2l-53.4-30.76v-61.52l.55-.08 14.91 8.67.16.5z" fill="#2379bd"/><path d="m26.4 42.32-15.62-9.08 53.28-30.76 53.16 30.64-15.38 8.6-37.78-21.56z" fill="#03afef"/><path d="m63.53 81.33-.41-.42v-16.64l.41-.21.1-.41 14.27-8.32.44.1v17.15l-14.8 8.76" fill="#2f406a"/><path d="m48.48 73.11v-17.81h.41l14.51 8.45.12.33v17.25z" fill="#2379bd"/><path d="m63.29 46.54-14.81 8.76 15.05 8.76 14.8-8.64z" fill="#03afef"/><path d="m45.11 92.19-.41-.42v-16.64l.41-.21.1-.41 14.27-8.32.44.1v17.14l-14.8 8.76" fill="#2f406a"/><path d="m30.06 84v-17.84h.41l14.53 8.43.12.33v17.27z" fill="#2379bd"/><path d="m44.86 57.4-14.8 8.76 15.05 8.76 14.8-8.64z" fill="#03afef"/><path d="m83.27 92.6-.41-.42v-16.64l.41-.21.1-.41 14.27-8.32.44.1v17.14z" fill="#2f406a"/><path d="m68.22 84.38v-17.81h.41l14.52 8.43.12.33v17.27z" fill="#2379bd"/><path d="m83 57.81-14.8 8.76 15.05 8.76 14.8-8.64z" fill="#03afef"/><path d="m64.85 103.46-.41-.42v-16.64l.41-.21.1-.41 14.27-8.32.44.1v17.14l-14.8 8.76" fill="#2f406a"/><path d="m49.8 95.23v-17.8h.41l14.51 8.45.12.33v17.27z" fill="#2379bd"/><path d="m64.6 68.67-14.8 8.76 15.05 8.76 14.8-8.64z" fill="#03afef"/><path d="m63.53 57.73-.41-.42v-16.64l.41-.21.1-.41 14.27-8.33.44.1v17.18l-14.8 8.76" fill="#2f406a"/><path d="m48.48 49.5v-17.8h.41l14.51 8.45.12.33v17.25z" fill="#2379bd"/><path d="m63.29 22.94-14.81 8.76 15.05 8.76 14.8-8.64z" fill="#03afef"/><path d="m45.11 68.59-.41-.42v-16.64l.41-.21.1-.41 14.27-8.32.44.1v17.14l-14.8 8.76" fill="#2f406a"/><path d="m30.06 60.36v-17.81h.41l14.53 8.45.12.33v17.26z" fill="#2379bd"/><path d="m44.86 33.8-14.8 8.76 15.05 8.76 14.8-8.64z" fill="#03afef"/><path d="m83.27 69-.41-.42v-16.64l.41-.21.1-.41 14.27-8.32.44.1v17.14z" fill="#2f406a"/><path d="m68.22 60.77v-17.77h.41l14.51 8.45.12.33v17.22z" fill="#2379bd"/><path d="m83 34.21-14.78 8.79 15.05 8.76 14.8-8.64z" fill="#03afef"/><path d="m64.85 79.85-.41-.42v-16.64l.41-.21.1-.41 14.27-8.32.44.1v17.14l-14.8 8.76" fill="#2f406a"/><path d="m49.8 71.63v-17.81h.41l14.51 8.45.12.33v17.25z" fill="#2379bd"/><path d="m64.6 45.06-14.8 8.76 15.05 8.76 14.8-8.64z" fill="#03afef"/></svg>